<svg width="20" height="10" viewBox="0 0 20 10" fill="none" xmlns="http://www.w3.org/2000/svg">
<path fill-rule="evenodd" clip-rule="evenodd" d="M0.625 0.625C0.625 0.279822 0.904822 0 1.25 0H18.75C19.0952 0 19.375 0.279822 19.375 0.625C19.375 0.970178 19.0952 1.25 18.75 1.25H1.25C0.904822 1.25 0.625 0.970178 0.625 0.625Z" fill="white"/>
<path fill-rule="evenodd" clip-rule="evenodd" d="M3.75 5C3.75 4.65482 4.02982 4.375 4.375 4.375H15.625C15.9702 4.375 16.25 4.65482 16.25 5C16.25 5.34518 15.9702 5.625 15.625 5.625H4.375C4.02982 5.625 3.75 5.34518 3.75 5Z" fill="white"/>
<path fill-rule="evenodd" clip-rule="evenodd" d="M7.5 9.375C7.5 9.02982 7.77982 8.75 8.125 8.75H11.875C12.2202 8.75 12.5 9.02982 12.5 9.375C12.5 9.72018 12.2202 10 11.875 10H8.125C7.77982 10 7.5 9.72018 7.5 9.375Z" fill="white"/>
</svg>
