<svg width="1981" height="1650" viewBox="0 0 1981 1650" fill="none" xmlns="http://www.w3.org/2000/svg">
<rect width="1981" height="1650" rx="500" fill="white"/>
<path d="M144 643.087C201.287 565.46 353.987 399.012 506.49 354.235L473.896 484.168C561.521 448.666 692.654 380.459 819.594 334.245C941.625 289.818 1071.51 264.395 1107.94 259L982.358 458.772C1033.69 477.069 1119.96 492.499 1200.37 532.702C1297.78 581.401 1389.98 645.942 1449.12 694.055L1835.28 759.77L1631.76 1032.6L1664.81 935.205L1591.75 831.352L1695.31 849.942L1705.98 816.587L1412.7 765.195C1359.41 727.197 1271.73 658.526 1171.96 608.978C1068.64 557.663 952.551 526.031 860.09 521.149H856.241L945.172 376.608C896.513 391.85 830.259 407.924 764.344 435.89C706.894 460.264 644.6 484.851 588.56 512.96L357.006 645.269L394.884 494.36C376.399 505.073 349.382 510.732 323.744 525.704C250.848 568.273 166.348 628.163 144 643.087Z" fill="#4A5C6A"/>
<path d="M1053.68 786.76L946.409 684.081L1228.2 734.54L1053.68 786.76Z" fill="#4A5C6A"/>
<path d="M357.006 645.269C397.123 620.005 486.043 564.382 588.56 512.96M357.006 645.269L588.56 512.96M357.006 645.269L394.884 494.36C376.399 505.073 349.382 510.732 323.744 525.704C250.848 568.273 166.348 628.163 144 643.087C201.287 565.46 353.987 399.012 506.49 354.235L473.896 484.168C561.521 448.666 692.654 380.459 819.594 334.245C941.625 289.818 1071.51 264.395 1107.94 259L982.358 458.772C1033.69 477.069 1119.96 492.499 1200.37 532.702C1297.78 581.401 1389.98 645.942 1449.12 694.055L1835.28 759.77L1631.76 1032.6L1664.81 935.205L1591.75 831.352L1695.31 849.942L1705.98 816.587L1412.7 765.195C1359.41 727.197 1271.73 658.526 1171.96 608.978C1068.64 557.663 952.551 526.031 860.09 521.149H856.241L945.172 376.608C896.513 391.85 830.259 407.924 764.344 435.89C706.894 460.264 644.6 484.851 588.56 512.96M946.409 684.081L1053.68 786.76L1228.2 734.54L946.409 684.081Z" stroke="#4A5C6A" stroke-width="100"/>
<path d="M849.75 1039.91C662.62 1065.71 467.638 1225.97 394.715 1300.08L561.155 1214.69L648.032 1179.51L737.909 1148.27L693.957 1303L820.962 1246.27L953.186 1195.39L1040.76 1166.14L1132.03 1140.69L1243.15 1112.92L1359.14 1091.28L1591.88 1063.67C1245.89 1039.23 926.037 1124.77 809.361 1170.59L849.75 1039.91Z" fill="#9BA8AB" stroke="#9BA8AB" stroke-width="100"/>
</svg>
