<svg width="1262" height="1262" viewBox="0 0 1262 1262" fill="none" xmlns="http://www.w3.org/2000/svg">
<circle cx="631" cy="631" r="631" fill="black"/>
<path d="M119.529 545.496C154.156 497.748 246.455 395.366 338.635 367.824L318.933 447.745C371.898 425.908 451.161 383.954 527.889 355.528C601.65 328.202 680.158 312.564 702.177 309.246L626.271 432.125C657.297 443.379 709.443 452.87 758.049 477.598C816.928 507.553 872.653 547.252 908.401 576.846L1141.82 617.267L1018.8 785.086L1038.78 725.176L994.618 661.297L1057.21 672.731L1063.66 652.215L886.386 620.604C854.176 597.231 801.178 554.992 740.875 524.515C678.422 492.952 608.254 473.495 552.367 470.492H550.04L603.794 381.586C574.382 390.961 534.335 400.848 494.493 418.049C459.768 433.042 422.114 448.165 388.242 465.455L248.28 546.838L271.175 454.014C260.002 460.604 243.672 464.085 228.175 473.294C184.113 499.478 133.037 536.316 119.529 545.496Z" fill="white"/>
<path d="M669.379 633.868L604.542 570.711L774.871 601.748L669.379 633.868Z" fill="white"/>
<path d="M545.534 789.939C432.445 805.857 314.611 904.748 270.541 950.479L371.127 897.787L423.629 876.084L477.945 856.804L451.383 952.283L528.137 917.276L608.045 885.877L660.966 867.832L716.127 852.125L783.281 834.99L853.375 821.637L994.028 804.6C784.934 789.52 591.637 842.301 521.126 870.577L545.534 789.939Z" fill="white"/>
</svg>
