<svg width="1822" height="1200" viewBox="0 0 1822 1200" fill="none" xmlns="http://www.w3.org/2000/svg">
<path d="M41 450.087C98.2872 372.46 250.987 206.012 403.49 161.235L370.896 291.168C458.521 255.666 589.654 187.459 716.594 141.245C838.625 96.8182 968.509 71.3945 1004.94 66L879.358 265.772C930.687 284.069 1016.96 299.499 1097.37 339.702C1194.78 388.401 1286.98 452.942 1346.12 501.055L1732.28 566.77L1528.76 839.604L1561.81 742.205L1488.75 638.352L1592.31 656.942L1602.98 623.587L1309.7 572.195C1256.41 534.197 1168.73 465.526 1068.96 415.978C965.638 364.663 849.551 333.031 757.09 328.149H753.241L842.172 183.608C793.513 198.85 727.259 214.924 661.344 242.89C603.894 267.264 541.6 291.851 485.56 319.96L254.006 452.269L291.884 301.36C273.399 312.073 246.382 317.732 220.744 332.704C147.848 375.273 63.3476 435.163 41 450.087Z" fill="#4A5C6A"/>
<path d="M950.677 593.76L843.409 491.081L1125.2 541.54L950.677 593.76Z" fill="#4A5C6A"/>
<path d="M254.006 452.269C294.123 427.005 383.043 371.382 485.56 319.96M254.006 452.269L485.56 319.96M254.006 452.269L291.884 301.36C273.399 312.073 246.382 317.732 220.744 332.704C147.848 375.273 63.3476 435.163 41 450.087C98.2872 372.46 250.987 206.012 403.49 161.235L370.896 291.168C458.521 255.666 589.654 187.459 716.594 141.245C838.625 96.8182 968.509 71.3945 1004.94 66L879.358 265.772C930.687 284.069 1016.96 299.499 1097.37 339.702C1194.78 388.401 1286.98 452.942 1346.12 501.055L1732.28 566.77L1528.76 839.604L1561.81 742.205L1488.75 638.352L1592.31 656.942L1602.98 623.587L1309.7 572.195C1256.41 534.197 1168.73 465.526 1068.96 415.978C965.638 364.663 849.551 333.031 757.09 328.149H753.241L842.172 183.608C793.513 198.85 727.259 214.924 661.344 242.89C603.894 267.264 541.6 291.851 485.56 319.96M843.409 491.081L950.677 593.76L1125.2 541.54L843.409 491.081Z" stroke="#4A5C6A" stroke-width="100"/>
<path d="M746.75 846.912C559.62 872.708 364.638 1032.97 291.715 1107.08L458.155 1021.69L545.032 986.515L634.909 955.271L590.957 1110L717.962 1053.27L850.186 1002.39L937.756 973.143L1029.03 947.688L1140.15 919.921L1256.14 898.281L1488.88 870.672C1142.89 846.233 823.037 931.769 706.361 977.591L746.75 846.912Z" fill="#9BA8AB" stroke="#9BA8AB" stroke-width="100"/>
</svg>
