<svg width="1981" height="1960" viewBox="0 0 1981 1960" fill="none" xmlns="http://www.w3.org/2000/svg">
<rect width="1981" height="1960" rx="500" fill="url(#paint0_linear_912_3949)"/>
<path d="M49.2812 885.248C110.657 806.578 274.257 637.893 437.645 592.515L402.724 724.194C496.604 688.215 637.097 619.091 773.098 572.256C903.839 527.232 1042.99 501.467 1082.02 496L947.479 698.457C1002.47 716.999 1094.9 732.637 1181.05 773.38C1285.42 822.734 1384.19 888.142 1447.55 936.902L1861.28 1003.5L1643.24 1280L1678.65 1181.29L1600.37 1076.04L1711.32 1094.88L1722.75 1061.08L1408.53 1009C1351.44 970.489 1257.5 900.895 1150.62 850.681C1039.92 798.677 915.545 766.619 816.484 761.672H812.36L907.638 615.189C855.507 630.635 784.523 646.925 713.903 675.267C652.353 699.969 585.612 724.886 525.573 753.373L277.491 887.46L318.072 734.523C298.268 745.379 269.323 751.115 241.855 766.288C163.756 809.429 73.224 870.124 49.2812 885.248Z" fill="url(#paint1_linear_912_3949)"/>
<path d="M1023.89 1030.85L908.964 926.793L1210.87 977.931L1023.89 1030.85Z" fill="url(#paint2_linear_912_3949)"/>
<path d="M277.491 887.46C320.471 861.856 415.738 805.486 525.573 753.373M277.491 887.46L525.573 753.373M277.491 887.46L318.072 734.523C298.268 745.379 269.323 751.115 241.855 766.288C163.756 809.429 73.224 870.124 49.2812 885.248C110.657 806.578 274.257 637.893 437.645 592.515L402.724 724.194C496.604 688.215 637.097 619.091 773.098 572.256C903.839 527.232 1042.99 501.467 1082.02 496L947.479 698.457C1002.47 716.999 1094.9 732.637 1181.05 773.38C1285.42 822.734 1384.19 888.142 1447.55 936.902L1861.28 1003.5L1643.24 1280L1678.64 1181.29L1600.37 1076.04L1711.32 1094.88L1722.75 1061.08L1408.53 1009C1351.44 970.489 1257.5 900.895 1150.62 850.681C1039.92 798.677 915.545 766.619 816.484 761.672H812.36L907.638 615.189C855.507 630.635 784.523 646.925 713.903 675.267C652.353 699.969 585.612 724.886 525.573 753.373M908.964 926.793L1023.89 1030.85L1210.87 977.931L908.964 926.793Z" stroke="white" stroke-width="50"/>
<path d="M805.562 1287C605.171 1313.08 396.372 1475.11 318.281 1550.04L496.516 1463.71L589.549 1428.15L685.795 1396.56L638.729 1553L774.734 1495.64L916.328 1444.19L1010.1 1414.63L1107.85 1388.89L1226.84 1360.82L1351.05 1338.94L1600.28 1311.02C1229.77 1286.31 887.256 1372.8 762.311 1419.13L805.562 1287Z" fill="#9BA8AB" stroke="white" stroke-width="50"/>
<defs>
<linearGradient id="paint0_linear_912_3949" x1="990" y1="528" x2="990.5" y2="1960" gradientUnits="userSpaceOnUse">
<stop stop-color="#4A5C6A"/>
<stop offset="1" stop-color="#9BA8AB"/>
</linearGradient>
<linearGradient id="paint1_linear_912_3949" x1="955.281" y1="496" x2="955.281" y2="1280" gradientUnits="userSpaceOnUse">
<stop stop-color="white"/>
<stop offset="1" stop-color="#4A5C6A"/>
</linearGradient>
<linearGradient id="paint2_linear_912_3949" x1="955.281" y1="496" x2="955.281" y2="1280" gradientUnits="userSpaceOnUse">
<stop stop-color="white"/>
<stop offset="1" stop-color="#4A5C6A"/>
</linearGradient>
</defs>
</svg>
