<svg width="632" height="398" viewBox="0 0 632 398" fill="none" xmlns="http://www.w3.org/2000/svg">
<path d="M0 146.041C21.405 116.525 78.4606 53.2364 135.442 36.2109L123.264 85.6152C156.004 72.1164 205.002 46.1821 252.432 28.6102C298.028 11.7179 346.559 2.05114 360.17 0L313.248 75.959C332.427 82.9159 364.661 88.783 394.708 104.069C431.105 122.586 465.552 147.126 487.65 165.42L631.938 190.407L555.894 294.146L568.243 257.112L540.946 217.624L579.638 224.693L583.626 212.01L474.041 192.469C454.13 178.022 421.369 151.911 384.092 133.071C345.486 113.56 302.111 101.533 267.563 99.6765H266.125L299.353 44.718C281.172 50.5132 256.417 56.6249 231.788 67.2583C210.322 76.5262 187.046 85.8748 166.107 96.5627L79.5886 146.87L93.7413 89.4905C86.8346 93.5637 76.7399 95.7157 67.1603 101.408C39.9231 117.594 8.35007 140.366 0 146.041Z" fill="#4A5C6A"/>
<path d="M339.896 200.669L299.816 161.627L405.107 180.814L339.896 200.669Z" fill="#4A5C6A"/>
<path d="M263.34 296.86C193.432 306.7 120.592 367.831 93.3496 396.1L155.528 363.528L187.983 350.112L221.559 338.194L205.139 397.215L252.585 375.575L301.981 356.166L334.695 345.011L368.794 335.301L410.305 324.71L453.635 316.455L540.581 305.924C411.327 296.601 291.839 329.229 248.251 346.708L263.34 296.86Z" fill="#9BA8AB"/>
</svg>
